<?xml version="1.0" encoding="UTF-8"?>
<!DOCTYPE svg PUBLIC "-//W3C//DTD SVG 1.1//EN" "http://www.w3.org/Graphics/SVG/1.1/DTD/svg11.dtd">
<svg xmlns="http://www.w3.org/2000/svg" version="1.1" width="537px" height="465px" style="shape-rendering:geometricPrecision; text-rendering:geometricPrecision; image-rendering:optimizeQuality; fill-rule:evenodd; clip-rule:evenodd" xmlns:xlink="http://www.w3.org/1999/xlink">
<g><path style="opacity:0.443" fill="#a0efa6" d="M 279.5,-0.5 C 282.5,-0.5 285.5,-0.5 288.5,-0.5C 291.5,0.166667 294.5,0.833333 297.5,1.5C 291.274,1.61233 285.274,0.945665 279.5,-0.5 Z"/></g>
<g><path style="opacity:1" fill="#79d886" d="M 247.5,-0.5 C 250.5,-0.5 253.5,-0.5 256.5,-0.5C 256.389,0.117425 256.056,0.617425 255.5,1C 249.843,1.49942 244.176,1.66609 238.5,1.5C 241.5,0.833333 244.5,0.166667 247.5,-0.5 Z"/></g>
<g><path style="opacity:1" fill="#85d692" d="M 238.5,1.5 C 234.081,2.97151 229.414,3.63818 224.5,3.5C 228.919,2.02849 233.586,1.36182 238.5,1.5 Z"/></g>
<g><path style="opacity:1" fill="#93de9b" d="M 223.5,3.5 C 218.528,5.81532 213.194,7.14865 207.5,7.5C 212.574,5.5953 217.908,4.26197 223.5,3.5 Z"/></g>
<g><path style="opacity:1" fill="#46d35a" d="M 256.5,-0.5 C 264.167,-0.5 271.833,-0.5 279.5,-0.5C 285.274,0.945665 291.274,1.61233 297.5,1.5C 300.609,1.26414 303.609,1.59748 306.5,2.5C 308.45,4.02603 310.783,5.02603 313.5,5.5C 318.445,6.60493 323.445,7.2716 328.5,7.5C 328.833,7.5 329.167,7.5 329.5,7.5C 330.99,9.27983 332.99,9.94649 335.5,9.5C 335.791,10.6491 336.624,11.3158 338,11.5C 340.137,12.0767 342.304,12.41 344.5,12.5C 344.47,13.4972 344.97,14.1639 346,14.5C 348.791,15.4062 351.624,16.0728 354.5,16.5C 354.833,16.5 355.167,16.5 355.5,16.5C 355.539,17.5832 355.873,18.5832 356.5,19.5C 359.391,20.6781 362.391,21.3447 365.5,21.5C 365.833,21.5 366.167,21.5 366.5,21.5C 367.287,23.1042 368.62,23.7709 370.5,23.5C 370.833,23.5 371.167,23.5 371.5,23.5C 371.5,24.5 371.5,25.5 371.5,26.5C 373.564,26.687 375.564,27.187 377.5,28C 381.812,30.9703 386.146,33.9703 390.5,37C 391.793,37.49 393.127,37.6567 394.5,37.5C 395.539,39.5311 397.205,40.8645 399.5,41.5C 399.833,41.5 400.167,41.5 400.5,41.5C 401.539,43.5311 403.205,44.8645 405.5,45.5C 406.5,46.1667 407.5,46.8333 408.5,47.5C 408.996,50.0071 410.33,52.0071 412.5,53.5C 417.122,57.0186 421.788,60.3519 426.5,63.5C 429.714,68.3874 433.714,72.7207 438.5,76.5C 441.243,78.2393 443.243,80.5726 444.5,83.5C 444.738,85.4044 445.738,86.7377 447.5,87.5C 449.262,88.2623 450.262,89.5956 450.5,91.5C 451.08,93.7488 452.413,95.4154 454.5,96.5C 454.427,98.0269 455.094,99.0269 456.5,99.5C 456.536,103.2 458.203,105.867 461.5,107.5C 462.906,107.973 463.573,108.973 463.5,110.5C 463.372,112.655 463.872,114.655 465,116.5C 466.723,119.999 468.89,122.999 471.5,125.5C 472.816,133.164 475.482,140.164 479.5,146.5C 480.989,150.323 482.656,153.99 484.5,157.5C 484.194,161.747 484.861,165.747 486.5,169.5C 485.737,172.141 485.57,174.808 486,177.5C 486.667,176.833 487.333,176.167 488,175.5C 488.675,182.548 489.675,189.548 491,196.5C 491.278,197.416 491.778,198.082 492.5,198.5C 493.219,200.764 493.552,203.097 493.5,205.5C 493.222,220.835 492.889,236.168 492.5,251.5C 489.94,264.286 487.94,277.286 486.5,290.5C 484.205,295.803 481.705,301.136 479,306.5C 479.046,309.633 478.046,312.3 476,314.5C 475.505,316.473 475.338,318.473 475.5,320.5C 475.5,320.833 475.5,321.167 475.5,321.5C 473.952,321.821 473.285,322.821 473.5,324.5C 471.896,325.287 471.229,326.62 471.5,328.5C 469.824,329.183 469.157,330.517 469.5,332.5C 465.66,335.181 463.66,338.847 463.5,343.5C 457.941,345.439 455.274,349.439 455.5,355.5C 455.068,356.71 454.401,357.71 453.5,358.5C 453.167,358.5 452.833,358.5 452.5,358.5C 451.25,358.423 450.417,357.756 450,356.5C 449.517,357.448 449.351,358.448 449.5,359.5C 448.448,359.351 447.448,359.517 446.5,360C 447.333,362.081 447.333,364.248 446.5,366.5C 444.508,366.672 442.842,366.005 441.5,364.5C 441.167,364.833 440.833,365.167 440.5,365.5C 442.124,366.869 442.624,368.536 442,370.5C 441.549,368.071 440.715,367.904 439.5,370C 440.337,371.011 440.67,372.178 440.5,373.5C 439.167,373.5 437.833,373.5 436.5,373.5C 436.5,375.5 436.5,377.5 436.5,379.5C 435.292,380.234 433.959,380.567 432.5,380.5C 432.567,383.766 430.901,385.266 427.5,385C 427.957,385.414 428.291,385.914 428.5,386.5C 424.845,386.266 422.845,388.266 422.5,392.5C 421.167,392.5 419.833,392.5 418.5,392.5C 418.116,394.929 417.449,397.263 416.5,399.5C 414.833,399.5 413.167,399.5 411.5,399.5C 411.5,400.833 411.5,402.167 411.5,403.5C 408.63,404.433 406.296,406.1 404.5,408.5C 400.256,408.602 397.59,410.602 396.5,414.5C 395.07,414.421 393.736,414.754 392.5,415.5C 389.669,417.083 387.003,418.916 384.5,421C 382.19,421.497 379.857,421.663 377.5,421.5C 377.386,423.718 376.72,425.718 375.5,427.5C 370.689,428.234 366.022,429.567 361.5,431.5C 358.887,433.718 355.887,435.385 352.5,436.5C 351.702,436.957 351.369,437.624 351.5,438.5C 347.895,438.529 344.395,439.195 341,440.5C 339.439,440.397 337.939,440.063 336.5,439.5C 335.289,440.274 335.289,441.107 336.5,442C 331.979,441.878 327.979,443.211 324.5,446C 311.985,447.973 299.652,450.14 287.5,452.5C 269.786,452.823 252.119,452.156 234.5,450.5C 227.655,448.665 220.655,447.665 213.5,447.5C 213.167,447.5 212.833,447.5 212.5,447.5C 212.423,446.25 211.756,445.417 210.5,445C 204.594,443.638 198.594,442.472 192.5,441.5C 192.167,441.5 191.833,441.5 191.5,441.5C 191.53,440.503 191.03,439.836 190,439.5C 183.565,436.427 177.065,433.427 170.5,430.5C 168.547,429.844 166.547,429.511 164.5,429.5C 162.029,427.335 159.362,425.168 156.5,423C 152.479,421.949 148.812,420.449 145.5,418.5C 143.451,416.415 141.451,414.248 139.5,412C 138.207,411.51 136.873,411.343 135.5,411.5C 132.883,410.214 130.55,408.547 128.5,406.5C 127.089,404.086 125.089,402.419 122.5,401.5C 119.477,398.474 116.81,395.141 114.5,391.5C 111.304,391.261 109.471,389.594 109,386.5C 108.184,385.177 107.017,384.511 105.5,384.5C 104.833,384.5 104.167,384.5 103.5,384.5C 103.33,381.796 101.997,380.129 99.5,379.5C 99.8034,376.412 98.4701,374.746 95.5,374.5C 94.0402,370.926 92.0402,367.592 89.5,364.5C 88.2742,362.722 86.6075,361.722 84.5,361.5C 84.838,358.843 84.1713,356.51 82.5,354.5C 83.5042,352.323 82.8375,351.989 80.5,353.5C 79.2319,351.696 78.5652,349.696 78.5,347.5C 77.5,347.5 76.5,347.5 75.5,347.5C 75.1858,343.161 73.1858,340.161 69.5,338.5C 69.5,338.167 69.5,337.833 69.5,337.5C 68.7054,334.45 67.7054,331.45 66.5,328.5C 65.675,327.614 64.675,327.281 63.5,327.5C 63.5,327.167 63.5,326.833 63.5,326.5C 63.6621,324.473 63.4955,322.473 63,320.5C 61.2077,317.992 59.7077,315.326 58.5,312.5C 58.8954,308.815 59.0621,305.148 59,301.5C 58.6667,300.833 58.3333,300.167 58,299.5C 56.4338,303.235 55.2671,303.235 54.5,299.5C 54.8538,296.558 55.5205,293.725 56.5,291C 55,290.167 53.8333,289 53,287.5C 51.4134,283.074 49.5801,278.741 47.5,274.5C 47.0041,267.779 45.6708,261.446 43.5,255.5C 42.8333,252.5 42.1667,249.5 41.5,246.5C 40.2037,232.852 40.2037,219.186 41.5,205.5C 42.5249,202.026 43.1916,198.36 43.5,194.5C 45.9729,188.538 46.9729,182.205 46.5,175.5C 48.0169,172.691 49.5169,169.691 51,166.5C 51.498,163.518 51.6646,160.518 51.5,157.5C 52.9238,155.485 53.5905,153.152 53.5,150.5C 55.8337,148.824 56.8337,146.491 56.5,143.5C 59.8587,139.106 61.8587,134.106 62.5,128.5C 62.5,127.833 62.8333,127.5 63.5,127.5C 64.5,127.5 65.5,127.5 66.5,127.5C 67.7114,124.218 68.8781,120.884 70,117.5C 71,116.167 72,116.167 73,117.5C 73.5946,116.101 73.4279,114.768 72.5,113.5C 74.0863,111.827 74.7529,109.827 74.5,107.5C 76.7593,106.656 77.7593,104.989 77.5,102.5C 78.9063,102.027 79.573,101.027 79.5,99.5C 80.9063,99.0269 81.573,98.0269 81.5,96.5C 82.9063,96.0269 83.573,95.0269 83.5,93.5C 83.8333,92.5 84.5,91.8333 85.5,91.5C 88.4707,89.5574 90.4707,86.8908 91.5,83.5C 92.8333,83.5 94.1667,83.5 95.5,83.5C 97.4506,80.5338 98.7839,77.2004 99.5,73.5C 103.167,71.8333 105.833,69.1667 107.5,65.5C 115.139,60.5247 121.806,54.5247 127.5,47.5C 127.833,47.5 128.167,47.5 128.5,47.5C 131.089,46.5806 133.089,44.914 134.5,42.5C 134.842,41.6618 135.508,41.3284 136.5,41.5C 139.37,40.5667 141.704,38.9 143.5,36.5C 149.289,36.1096 153.622,33.443 156.5,28.5C 158.967,28.2451 160.967,27.2451 162.5,25.5C 166.372,24.8975 169.705,23.2309 172.5,20.5C 175.74,18.049 179.407,16.3824 183.5,15.5C 185.527,15.6621 187.527,15.4955 189.5,15C 195.406,12.8065 201.073,10.3065 206.5,7.5C 206.833,7.5 207.167,7.5 207.5,7.5C 213.194,7.14865 218.528,5.81532 223.5,3.5C 223.833,3.5 224.167,3.5 224.5,3.5C 229.414,3.63818 234.081,2.97151 238.5,1.5C 244.176,1.66609 249.843,1.49942 255.5,1C 256.056,0.617425 256.389,0.117425 256.5,-0.5 Z M 263.5,159.5 C 263.833,159.5 264.167,159.5 264.5,159.5C 268.699,160.971 273.033,162.305 277.5,163.5C 277.5,171.833 277.5,180.167 277.5,188.5C 273.749,186.293 269.749,184.626 265.5,183.5C 263.786,182.262 261.786,181.595 259.5,181.5C 259.167,181.5 258.833,181.5 258.5,181.5C 250.019,179.073 241.352,178.907 232.5,181C 230.509,181.374 228.842,182.207 227.5,183.5C 223.246,184.585 220.413,187.252 219,191.5C 217.411,198.2 218.911,204.034 223.5,209C 227.155,211.827 231.155,213.993 235.5,215.5C 236.514,216.674 237.847,217.34 239.5,217.5C 243.405,220.284 247.738,222.284 252.5,223.5C 253.514,224.674 254.847,225.34 256.5,225.5C 256.973,226.906 257.973,227.573 259.5,227.5C 261.663,229.083 263.996,230.416 266.5,231.5C 267.585,233.587 269.251,234.92 271.5,235.5C 271.833,236.167 272.167,236.833 272.5,237.5C 273.5,239.167 274.833,240.5 276.5,241.5C 284.823,255.46 285.49,269.793 278.5,284.5C 274.461,289.54 269.794,293.873 264.5,297.5C 262.716,297.893 261.05,298.559 259.5,299.5C 245.54,303.96 231.207,305.627 216.5,304.5C 211.956,303.509 207.289,302.509 202.5,301.5C 202.167,301.5 201.833,301.5 201.5,301.5C 197.957,300.14 194.457,298.474 191,296.5C 190.176,287.657 190.343,278.99 191.5,270.5C 194.998,273.659 198.998,275.992 203.5,277.5C 207.337,280.078 211.67,281.412 216.5,281.5C 226.523,284.412 236.523,283.912 246.5,280C 248.324,279.34 249.657,278.173 250.5,276.5C 252.262,275.738 253.262,274.404 253.5,272.5C 255.955,268.402 256.122,264.068 254,259.5C 253.623,258.058 252.79,257.058 251.5,256.5C 248.774,252.45 245.108,249.45 240.5,247.5C 240.167,247.5 239.833,247.5 239.5,247.5C 234.48,244.323 229.146,241.657 223.5,239.5C 223.167,239.5 222.833,239.5 222.5,239.5C 220.819,237.992 218.819,236.992 216.5,236.5C 215.486,235.326 214.153,234.66 212.5,234.5C 206.871,230.206 201.537,225.539 196.5,220.5C 195.89,218.566 194.89,216.899 193.5,215.5C 192.833,213.167 192.167,210.833 191.5,208.5C 190.593,202.894 190.26,197.227 190.5,191.5C 191.883,187.066 193.55,182.732 195.5,178.5C 198.5,174.833 201.833,171.5 205.5,168.5C 217.423,161.269 230.423,157.935 244.5,158.5C 250.84,158.8 257.173,159.134 263.5,159.5 Z M 399.5,160.5 C 402.215,162.072 405.215,163.072 408.5,163.5C 408.5,171.833 408.5,180.167 408.5,188.5C 403.027,186.232 397.36,184.565 391.5,183.5C 379.406,180.56 367.406,181.06 355.5,185C 352.593,186.609 349.927,188.442 347.5,190.5C 343.167,192.833 339.833,196.167 337.5,200.5C 335.412,202.336 334.079,204.669 333.5,207.5C 331.194,211.085 329.861,215.085 329.5,219.5C 327.038,227.977 326.872,236.643 329,245.5C 329.505,248.865 330.672,251.865 332.5,254.5C 332.5,254.833 332.5,255.167 332.5,255.5C 332.75,257.674 333.75,259.341 335.5,260.5C 338.113,266.113 342.113,270.446 347.5,273.5C 347.973,274.906 348.973,275.573 350.5,275.5C 353.16,277.497 356.16,278.997 359.5,280C 367.3,281.557 374.967,281.723 382.5,280.5C 382.833,280.5 383.167,280.5 383.5,280.5C 389.245,280.397 394.578,279.064 399.5,276.5C 402.298,275.9 404.965,274.9 407.5,273.5C 408.799,281.558 408.799,289.558 407.5,297.5C 402.558,299.37 397.558,301.036 392.5,302.5C 379.549,304.657 366.549,304.991 353.5,303.5C 353.167,303.5 352.833,303.5 352.5,303.5C 350.095,302.232 347.428,301.565 344.5,301.5C 342.786,300.262 340.786,299.595 338.5,299.5C 334.535,297.182 330.535,294.848 326.5,292.5C 323.526,289.862 320.526,287.195 317.5,284.5C 313.801,279.144 310.134,273.81 306.5,268.5C 306.065,265.843 305.065,263.509 303.5,261.5C 302.943,256.948 301.943,252.615 300.5,248.5C 300.5,248.167 300.5,247.833 300.5,247.5C 299.33,234.028 300.33,220.694 303.5,207.5C 306.587,200.271 310.254,193.271 314.5,186.5C 321.497,177.845 329.831,170.845 339.5,165.5C 345.586,163.441 351.586,161.441 357.5,159.5C 371.54,158.081 385.54,158.414 399.5,160.5 Z M 135.5,160.5 C 144.5,160.5 153.5,160.5 162.5,160.5C 162.667,207.501 162.5,254.501 162,301.5C 153.53,302.822 145.03,302.822 136.5,301.5C 135.5,254.505 135.167,207.505 135.5,160.5 Z"/></g>
<g><path style="opacity:1" fill="#7cd786" d="M 306.5,2.5 C 314.12,3.42096 321.453,5.08763 328.5,7.5C 323.445,7.2716 318.445,6.60493 313.5,5.5C 310.783,5.02603 308.45,4.02603 306.5,2.5 Z"/></g>
<g><path style="opacity:0.898" fill="#9ee1ac" d="M 329.5,7.5 C 331.786,7.59495 333.786,8.26162 335.5,9.5C 332.99,9.94649 330.99,9.27983 329.5,7.5 Z"/></g>
<g><path style="opacity:0.906" fill="#8bdb91" d="M 206.5,7.5 C 201.073,10.3065 195.406,12.8065 189.5,15C 187.527,15.4955 185.527,15.6621 183.5,15.5C 190.803,12.0643 198.47,9.39764 206.5,7.5 Z"/></g>
<g><path style="opacity:0.635" fill="#9fe3a4" d="M 335.5,9.5 C 338.785,9.92809 341.785,10.9281 344.5,12.5C 342.304,12.41 340.137,12.0767 338,11.5C 336.624,11.3158 335.791,10.6491 335.5,9.5 Z"/></g>
<g><path style="opacity:0.973" fill="#98dda0" d="M 344.5,12.5 C 348.137,13.2635 351.47,14.5968 354.5,16.5C 351.624,16.0728 348.791,15.4062 346,14.5C 344.97,14.1639 344.47,13.4972 344.5,12.5 Z"/></g>
<g><path style="opacity:0.976" fill="#7ed787" d="M 355.5,16.5 C 359.151,17.6589 362.485,19.3256 365.5,21.5C 362.391,21.3447 359.391,20.6781 356.5,19.5C 355.873,18.5832 355.539,17.5832 355.5,16.5 Z"/></g>
<g><path style="opacity:0.333" fill="#bdf0c7" d="M 366.5,21.5 C 368.153,21.6596 369.486,22.3263 370.5,23.5C 368.62,23.7709 367.287,23.1042 366.5,21.5 Z"/></g>
<g><path style="opacity:1" fill="#7fd78f" d="M 172.5,20.5 C 169.705,23.2309 166.372,24.8975 162.5,25.5C 165.235,22.7989 168.569,21.1322 172.5,20.5 Z"/></g>
<g><path style="opacity:0.671" fill="#a8e6af" d="M 162.5,25.5 C 160.967,27.2451 158.967,28.2451 156.5,28.5C 158.033,26.7549 160.033,25.7549 162.5,25.5 Z"/></g>
<g><path style="opacity:1" fill="#8adb92" d="M 371.5,23.5 C 379.337,27.9168 387.003,32.5835 394.5,37.5C 393.127,37.6567 391.793,37.49 390.5,37C 386.146,33.9703 381.812,30.9703 377.5,28C 375.564,27.187 373.564,26.687 371.5,26.5C 371.5,25.5 371.5,24.5 371.5,23.5 Z"/></g>
<g><path style="opacity:1" fill="#72d37e" d="M 156.5,28.5 C 153.622,33.443 149.289,36.1096 143.5,36.5C 147.323,33.0843 151.657,30.4176 156.5,28.5 Z"/></g>
<g><path style="opacity:0.984" fill="#9de4a8" d="M 394.5,37.5 C 396.754,38.1237 398.421,39.457 399.5,41.5C 397.205,40.8645 395.539,39.5311 394.5,37.5 Z"/></g>
<g><path style="opacity:0.796" fill="#9ce3a7" d="M 143.5,36.5 C 141.704,38.9 139.37,40.5667 136.5,41.5C 138.296,39.1 140.63,37.4333 143.5,36.5 Z"/></g>
<g><path style="opacity:0.941" fill="#b0e7b8" d="M 400.5,41.5 C 402.754,42.1237 404.421,43.457 405.5,45.5C 403.205,44.8645 401.539,43.5311 400.5,41.5 Z"/></g>
<g><path style="opacity:0.953" fill="#95dca1" d="M 134.5,42.5 C 133.089,44.914 131.089,46.5806 128.5,47.5C 129.911,45.086 131.911,43.4194 134.5,42.5 Z"/></g>
<g><path style="opacity:1" fill="#85da8e" d="M 408.5,47.5 C 414.823,52.4908 420.823,57.8241 426.5,63.5C 421.788,60.3519 417.122,57.0186 412.5,53.5C 410.33,52.0071 408.996,50.0071 408.5,47.5 Z"/></g>
<g><path style="opacity:0.824" fill="#97dfa3" d="M 127.5,47.5 C 121.806,54.5247 115.139,60.5247 107.5,65.5C 113.843,59.1584 120.509,53.1584 127.5,47.5 Z"/></g>
<g><path style="opacity:0.89" fill="#a2e2ac" d="M 426.5,63.5 C 431.23,67.2269 435.23,71.5603 438.5,76.5C 433.714,72.7207 429.714,68.3874 426.5,63.5 Z"/></g>
<g><path style="opacity:0.839" fill="#a5e2a8" d="M 107.5,65.5 C 105.833,69.1667 103.167,71.8333 99.5,73.5C 101.833,70.5 104.5,67.8333 107.5,65.5 Z"/></g>
<g><path style="opacity:1" fill="#75d57e" d="M 99.5,73.5 C 98.7839,77.2004 97.4506,80.5338 95.5,83.5C 94.1667,83.5 92.8333,83.5 91.5,83.5C 93.7935,79.8726 96.4602,76.5393 99.5,73.5 Z"/></g>
<g><path style="opacity:0.886" fill="#a2e6aa" d="M 444.5,83.5 C 446.262,84.2623 447.262,85.5956 447.5,87.5C 445.738,86.7377 444.738,85.4044 444.5,83.5 Z"/></g>
<g><path style="opacity:0.851" fill="#94dda1" d="M 91.5,83.5 C 90.4707,86.8908 88.4707,89.5574 85.5,91.5C 87.016,88.4669 89.016,85.8003 91.5,83.5 Z"/></g>
<g><path style="opacity:0.945" fill="#9be1a5" d="M 450.5,91.5 C 452.587,92.5846 453.92,94.2512 454.5,96.5C 452.413,95.4154 451.08,93.7488 450.5,91.5 Z"/></g>
<g><path style="opacity:0.314" fill="#c5f3ce" d="M 83.5,93.5 C 83.573,95.0269 82.9063,96.0269 81.5,96.5C 81.427,94.9731 82.0937,93.9731 83.5,93.5 Z"/></g>
<g><path style="opacity:0.604" fill="#b1efc3" d="M 81.5,96.5 C 81.573,98.0269 80.9063,99.0269 79.5,99.5C 79.427,97.9731 80.0937,96.9731 81.5,96.5 Z"/></g>
<g><path style="opacity:0.62" fill="#beeec5" d="M 454.5,96.5 C 455.906,96.9731 456.573,97.9731 456.5,99.5C 455.094,99.0269 454.427,98.0269 454.5,96.5 Z"/></g>
<g><path style="opacity:0.757" fill="#b4e9ba" d="M 79.5,99.5 C 79.573,101.027 78.9063,102.027 77.5,102.5C 77.427,100.973 78.0937,99.9731 79.5,99.5 Z"/></g>
<g><path style="opacity:1" fill="#87db91" d="M 456.5,99.5 C 458.664,101.822 460.331,104.489 461.5,107.5C 458.203,105.867 456.536,103.2 456.5,99.5 Z"/></g>
<g><path style="opacity:1" fill="#88db95" d="M 77.5,102.5 C 77.7593,104.989 76.7593,106.656 74.5,107.5C 75.1103,105.566 76.1103,103.899 77.5,102.5 Z"/></g>
<g><path style="opacity:0.31" fill="#bcf5c4" d="M 71.5,112.5 C 71.573,114.027 70.9063,115.027 69.5,115.5C 69.427,113.973 70.0937,112.973 71.5,112.5 Z"/></g>
<g><path style="opacity:1" fill="#89da91" d="M 463.5,110.5 C 466.997,115.013 469.663,120.013 471.5,125.5C 468.89,122.999 466.723,119.999 465,116.5C 463.872,114.655 463.372,112.655 463.5,110.5 Z"/></g>
<g><path style="opacity:1" fill="#6cd377" d="M 74.5,107.5 C 74.7529,109.827 74.0863,111.827 72.5,113.5C 73.4279,114.768 73.5946,116.101 73,117.5C 72,116.167 71,116.167 70,117.5C 68.8781,120.884 67.7114,124.218 66.5,127.5C 65.5,127.5 64.5,127.5 63.5,127.5C 64.9458,123.123 66.9458,119.123 69.5,115.5C 70.9063,115.027 71.573,114.027 71.5,112.5C 71.7497,110.326 72.7497,108.659 74.5,107.5 Z"/></g>
<g><path style="opacity:1" fill="#91dd9d" d="M 62.5,128.5 C 61.8587,134.106 59.8587,139.106 56.5,143.5C 57.7042,138.105 59.7042,133.105 62.5,128.5 Z"/></g>
<g><path style="opacity:1" fill="#71d37d" d="M 471.5,125.5 C 475.216,130.94 477.882,136.94 479.5,143.5C 479.5,144.5 479.5,145.5 479.5,146.5C 475.482,140.164 472.816,133.164 471.5,125.5 Z"/></g>
<g><path style="opacity:1" fill="#93df9d" d="M 56.5,143.5 C 56.8337,146.491 55.8337,148.824 53.5,150.5C 53.9348,147.843 54.9348,145.509 56.5,143.5 Z"/></g>
<g><path style="opacity:1" fill="#9ae0a4" d="M 479.5,143.5 C 482.254,147.695 483.921,152.362 484.5,157.5C 482.656,153.99 480.989,150.323 479.5,146.5C 479.5,145.5 479.5,144.5 479.5,143.5 Z"/></g>
<g><path style="opacity:0.914" fill="#a4e3ad" d="M 53.5,150.5 C 53.5905,153.152 52.9238,155.485 51.5,157.5C 51.4095,154.848 52.0762,152.515 53.5,150.5 Z"/></g>
<g><path style="opacity:1" fill="#52cc65" d="M 272.5,159.5 C 269.833,159.5 267.167,159.5 264.5,159.5C 264.167,159.5 263.833,159.5 263.5,159.5C 251.697,157.264 239.697,156.931 227.5,158.5C 227.611,157.883 227.944,157.383 228.5,157C 238.52,156.759 248.52,156.259 258.5,155.5C 263.177,157.166 267.844,158.499 272.5,159.5 Z"/></g>
<g><path style="opacity:1" fill="#8ddc98" d="M 263.5,159.5 C 257.173,159.134 250.84,158.8 244.5,158.5C 230.423,157.935 217.423,161.269 205.5,168.5C 206.167,167.167 206.833,165.833 207.5,164.5C 214.137,162.177 220.803,160.177 227.5,158.5C 239.697,156.931 251.697,157.264 263.5,159.5 Z"/></g>
<g><path style="opacity:1" fill="#86d78e" d="M 264.5,159.5 C 267.167,159.5 269.833,159.5 272.5,159.5C 274.419,160.612 276.086,161.946 277.5,163.5C 273.033,162.305 268.699,160.971 264.5,159.5 Z"/></g>
<g><path style="opacity:1" fill="#89dc95" d="M 357.5,159.5 C 351.586,161.441 345.586,163.441 339.5,165.5C 339.5,164.5 339.5,163.5 339.5,162.5C 345.438,161.183 351.438,160.183 357.5,159.5 Z"/></g>
<g><path style="opacity:1" fill="#7dd585" d="M 51.5,157.5 C 51.6646,160.518 51.498,163.518 51,166.5C 49.5169,169.691 48.0169,172.691 46.5,175.5C 47.2515,169.151 48.9181,163.151 51.5,157.5 Z"/></g>
<g><path style="opacity:1" fill="#62ce72" d="M 399.5,160.5 C 403.1,160.794 406.6,161.46 410,162.5C 410.824,171.343 410.657,180.01 409.5,188.5C 409.826,179.983 409.493,171.65 408.5,163.5C 405.215,163.072 402.215,162.072 399.5,160.5 Z"/></g>
<g><path style="opacity:1" fill="#7fda89" d="M 484.5,157.5 C 486.924,162.847 488.591,168.513 489.5,174.5C 488.687,172.739 487.687,171.072 486.5,169.5C 484.861,165.747 484.194,161.747 484.5,157.5 Z"/></g>
<g><path style="opacity:1" fill="#55cf66" d="M 486.5,169.5 C 487.687,171.072 488.687,172.739 489.5,174.5C 490.675,178.042 491.341,181.709 491.5,185.5C 491.927,189.824 492.261,194.158 492.5,198.5C 491.778,198.082 491.278,197.416 491,196.5C 489.675,189.548 488.675,182.548 488,175.5C 487.333,176.167 486.667,176.833 486,177.5C 485.57,174.808 485.737,172.141 486.5,169.5 Z"/></g>
<g><path style="opacity:1" fill="#70d67c" d="M 207.5,164.5 C 206.833,165.833 206.167,167.167 205.5,168.5C 201.833,171.5 198.5,174.833 195.5,178.5C 195.993,176.194 196.326,173.861 196.5,171.5C 198.942,171.646 199.609,170.813 198.5,169C 200.134,168.506 201.801,168.34 203.5,168.5C 203.714,166.856 203.38,165.356 202.5,164C 204.107,164.019 205.774,164.185 207.5,164.5 Z"/></g>
<g><path style="opacity:1" fill="#72d77d" d="M 339.5,165.5 C 329.831,170.845 321.497,177.845 314.5,186.5C 314.786,184.723 315.453,183.056 316.5,181.5C 315.295,179.879 315.461,178.546 317,177.5C 318.113,178.711 319.28,178.711 320.5,177.5C 321.731,176.349 321.731,175.183 320.5,174C 321.449,173.383 322.282,173.549 323,174.5C 323.483,173.552 323.649,172.552 323.5,171.5C 324.833,171.5 326.167,171.5 327.5,171.5C 327.5,170.5 327.5,169.5 327.5,168.5C 328.822,168.33 329.989,168.663 331,169.5C 333.025,166.543 335.858,165.21 339.5,165.5 Z"/></g>
<g><path style="opacity:1" fill="#4cce60" d="M 134.5,161.5 C 134.5,207.833 134.5,254.167 134.5,300.5C 133.078,300.25 132.078,299.417 131.5,298C 132.824,255.386 132.824,212.719 131.5,170C 131.609,166.628 132.609,163.794 134.5,161.5 Z"/></g>
<g><path style="opacity:1" fill="#8edc99" d="M 258.5,181.5 C 248.028,180.997 237.694,181.664 227.5,183.5C 228.842,182.207 230.509,181.374 232.5,181C 241.352,178.907 250.019,179.073 258.5,181.5 Z"/></g>
<g><path style="opacity:0.588" fill="#ade7c0" d="M 259.5,181.5 C 261.786,181.595 263.786,182.262 265.5,183.5C 263.102,183.741 261.102,183.074 259.5,181.5 Z"/></g>
<g><path style="opacity:1" fill="#6cd378" d="M 391.5,183.5 C 391.5,183.833 391.5,184.167 391.5,184.5C 382.161,184.334 372.827,184.5 363.5,185C 358.276,187.034 352.942,188.868 347.5,190.5C 349.927,188.442 352.593,186.609 355.5,185C 367.406,181.06 379.406,180.56 391.5,183.5 Z"/></g>
<g><path style="opacity:1" fill="#85d68f" d="M 265.5,183.5 C 269.749,184.626 273.749,186.293 277.5,188.5C 276.749,189.573 275.749,189.74 274.5,189C 271.168,187.601 268.168,185.768 265.5,183.5 Z"/></g>
<g><path style="opacity:1" fill="#67d374" d="M 46.5,175.5 C 46.9729,182.205 45.9729,188.538 43.5,194.5C 43.5,193.167 43.5,191.833 43.5,190.5C 43.8821,185.256 44.8821,180.256 46.5,175.5 Z"/></g>
<g><path style="opacity:1" fill="#8cdc97" d="M 408.5,163.5 C 409.493,171.65 409.826,179.983 409.5,188.5C 407.712,189.622 405.712,189.789 403.5,189C 399.595,187.193 395.595,185.693 391.5,184.5C 391.5,184.167 391.5,183.833 391.5,183.5C 397.36,184.565 403.027,186.232 408.5,188.5C 408.5,180.167 408.5,171.833 408.5,163.5 Z"/></g>
<g><path style="opacity:1" fill="#68cf74" d="M 195.5,178.5 C 193.55,182.732 191.883,187.066 190.5,191.5C 189.349,196.65 189.183,201.984 190,207.5C 190.383,208.056 190.883,208.389 191.5,208.5C 192.167,210.833 192.833,213.167 193.5,215.5C 191.526,213.572 190.026,211.239 189,208.5C 188.333,201.5 188.333,194.5 189,187.5C 190.333,184.833 191.667,182.167 193,179.5C 193.671,178.748 194.504,178.414 195.5,178.5 Z"/></g>
<g><path style="opacity:0.976" fill="#9ae0a2" d="M 347.5,190.5 C 344.5,193.833 341.5,197.167 338.5,200.5C 338.167,200.5 337.833,200.5 337.5,200.5C 339.833,196.167 343.167,192.833 347.5,190.5 Z"/></g>
<g><path style="opacity:1" fill="#9ae0a4" d="M 43.5,190.5 C 43.5,191.833 43.5,193.167 43.5,194.5C 43.1916,198.36 42.5249,202.026 41.5,205.5C 41.4443,200.269 42.111,195.269 43.5,190.5 Z"/></g>
<g><path style="opacity:1" fill="#7cd787" d="M 314.5,186.5 C 310.254,193.271 306.587,200.271 303.5,207.5C 303.736,204.086 304.402,200.753 305.5,197.5C 307.158,194.912 308.825,192.245 310.5,189.5C 309.301,185.741 310.635,184.741 314.5,186.5 Z"/></g>
<g><path style="opacity:0.094" fill="#c0f3c8" d="M 190.5,191.5 C 190.26,197.227 190.593,202.894 191.5,208.5C 190.883,208.389 190.383,208.056 190,207.5C 189.183,201.984 189.349,196.65 190.5,191.5 Z"/></g>
<g><path style="opacity:1" fill="#8eda96" d="M 491.5,185.5 C 493.415,191.899 494.415,198.565 494.5,205.5C 494.167,205.5 493.833,205.5 493.5,205.5C 493.552,203.097 493.219,200.764 492.5,198.5C 492.261,194.158 491.927,189.824 491.5,185.5 Z"/></g>
<g><path style="opacity:1" fill="#6ed17a" d="M 337.5,200.5 C 337.833,200.5 338.167,200.5 338.5,200.5C 338.5,201.833 338.5,203.167 338.5,204.5C 337.5,204.5 336.5,204.5 335.5,204.5C 335.715,206.179 335.048,207.179 333.5,207.5C 334.079,204.669 335.412,202.336 337.5,200.5 Z"/></g>
<g><path style="opacity:1" fill="#71d47f" d="M 227.5,183.5 C 227.5,184.5 227.5,185.5 227.5,186.5C 226.5,186.5 225.5,186.5 224.5,186.5C 224.5,187.5 224.5,188.5 224.5,189.5C 222.876,189.36 221.71,190.027 221,191.5C 219.718,196.674 220.551,201.34 223.5,205.5C 227.645,205.448 229.978,207.448 230.5,211.5C 232.045,212.452 233.712,212.785 235.5,212.5C 235.5,213.5 235.5,214.5 235.5,215.5C 231.155,213.993 227.155,211.827 223.5,209C 218.911,204.034 217.411,198.2 219,191.5C 220.413,187.252 223.246,184.585 227.5,183.5 Z"/></g>
<g><path style="opacity:1" fill="#96e0a1" d="M 333.5,207.5 C 333.483,209.565 333.15,211.565 332.5,213.5C 331.5,215.5 330.5,217.5 329.5,219.5C 329.861,215.085 331.194,211.085 333.5,207.5 Z"/></g>
<g><path style="opacity:1" fill="#8fda97" d="M 239.5,217.5 C 244.506,218.171 248.839,220.171 252.5,223.5C 247.738,222.284 243.405,220.284 239.5,217.5 Z"/></g>
<g><path style="opacity:1" fill="#87de91" d="M 193.5,215.5 C 194.89,216.899 195.89,218.566 196.5,220.5C 194.241,219.656 193.241,217.989 193.5,215.5 Z"/></g>
<g><path style="opacity:0.671" fill="#a9dfad" d="M 252.5,223.5 C 254.38,223.229 255.713,223.896 256.5,225.5C 254.847,225.34 253.514,224.674 252.5,223.5 Z"/></g>
<g><path style="opacity:0.668" fill="#8dd995" d="M 134.5,300.5 C 134.5,254.167 134.5,207.833 134.5,161.5C 143.775,159.527 153.442,158.86 163.5,159.5C 163.667,207.168 163.5,254.834 163,302.5C 153.911,303.65 144.745,303.817 135.5,303C 134.748,302.329 134.414,301.496 134.5,300.5 Z M 135.5,160.5 C 135.167,207.505 135.5,254.505 136.5,301.5C 145.03,302.822 153.53,302.822 162,301.5C 162.5,254.501 162.667,207.501 162.5,160.5C 153.5,160.5 144.5,160.5 135.5,160.5 Z"/></g>
<g><path style="opacity:0.404" fill="#bbf2c0" d="M 256.5,225.5 C 258.027,225.427 259.027,226.094 259.5,227.5C 257.973,227.573 256.973,226.906 256.5,225.5 Z"/></g>
<g><path style="opacity:1" fill="#83d88a" d="M 196.5,220.5 C 201.537,225.539 206.871,230.206 212.5,234.5C 207.181,232.125 202.181,228.958 197.5,225C 196.62,223.644 196.286,222.144 196.5,220.5 Z"/></g>
<g><path style="opacity:1" fill="#71d47c" d="M 332.5,213.5 C 331.137,219.732 330.47,226.066 330.5,232.5C 331.17,239.837 331.837,247.17 332.5,254.5C 330.672,251.865 329.505,248.865 329,245.5C 326.872,236.643 327.038,227.977 329.5,219.5C 330.5,217.5 331.5,215.5 332.5,213.5 Z"/></g>
<g><path style="opacity:0.98" fill="#9adea0" d="M 266.5,231.5 C 268.749,232.08 270.415,233.413 271.5,235.5C 269.251,234.92 267.585,233.587 266.5,231.5 Z"/></g>
<g><path style="opacity:0.979" fill="#7bd484" d="M 303.5,207.5 C 300.33,220.694 299.33,234.028 300.5,247.5C 299.172,242.881 298.506,237.881 298.5,232.5C 298.39,224.048 299.057,215.715 300.5,207.5C 301.5,207.5 302.5,207.5 303.5,207.5 Z"/></g>
<g><path style="opacity:1" fill="#6bd277" d="M 493.5,205.5 C 493.833,205.5 494.167,205.5 494.5,205.5C 495.815,219.507 495.815,233.507 494.5,247.5C 493.833,248.833 493.167,250.167 492.5,251.5C 492.889,236.168 493.222,220.835 493.5,205.5 Z"/></g>
<g><path style="opacity:0.639" fill="#bbebc1" d="M 272.5,237.5 C 274.833,237.833 276.167,239.167 276.5,241.5C 274.833,240.5 273.5,239.167 272.5,237.5 Z"/></g>
<g><path style="opacity:1" fill="#99e29e" d="M 216.5,236.5 C 218.819,236.992 220.819,237.992 222.5,239.5C 219.68,239.913 217.68,238.913 216.5,236.5 Z"/></g>
<g><path style="opacity:0.969" fill="#86dc91" d="M 223.5,239.5 C 229.146,241.657 234.48,244.323 239.5,247.5C 234.347,245.45 229.014,243.784 223.5,242.5C 223.5,241.5 223.5,240.5 223.5,239.5 Z"/></g>
<g><path style="opacity:1" fill="#80d68a" d="M 240.5,247.5 C 245.108,249.45 248.774,252.45 251.5,256.5C 250.022,256.762 248.689,256.429 247.5,255.5C 246.016,252.596 243.683,250.929 240.5,250.5C 240.5,249.5 240.5,248.5 240.5,247.5 Z"/></g>
<g><path style="opacity:0.467" fill="#a9ebad" d="M 41.5,246.5 C 42.1667,249.5 42.8333,252.5 43.5,255.5C 43.5,258.167 43.5,260.833 43.5,263.5C 41.9879,258.071 41.3213,252.404 41.5,246.5 Z"/></g>
<g><path style="opacity:1" fill="#7ad585" d="M 300.5,248.5 C 301.943,252.615 302.943,256.948 303.5,261.5C 302.849,260.909 302.182,260.243 301.5,259.5C 300.511,255.893 300.177,252.226 300.5,248.5 Z"/></g>
<g><path style="opacity:0.988" fill="#88dc97" d="M 332.5,255.5 C 334.741,256.3 335.741,257.966 335.5,260.5C 333.75,259.341 332.75,257.674 332.5,255.5 Z"/></g>
<g><path style="opacity:1" fill="#79d782" d="M 335.5,260.5 C 336.873,260.343 338.207,260.51 339.5,261C 339.167,261.333 338.833,261.667 338.5,262C 341.147,266.136 344.147,269.969 347.5,273.5C 342.113,270.446 338.113,266.113 335.5,260.5 Z"/></g>
<g><path style="opacity:1" fill="#80d888" d="M 494.5,247.5 C 493.608,262.286 490.941,276.619 486.5,290.5C 487.94,277.286 489.94,264.286 492.5,251.5C 493.167,250.167 493.833,248.833 494.5,247.5 Z"/></g>
<g><path style="opacity:1" fill="#8bda96" d="M 251.5,256.5 C 252.79,257.058 253.623,258.058 254,259.5C 256.122,264.068 255.955,268.402 253.5,272.5C 253.847,266.943 253.18,261.61 251.5,256.5 Z"/></g>
<g><path style="opacity:1" fill="#90db9a" d="M 303.5,261.5 C 305.065,263.509 306.065,265.843 306.5,268.5C 304.166,266.824 303.166,264.491 303.5,261.5 Z"/></g>
<g><path style="opacity:0.991" fill="#83d88c" d="M 276.5,241.5 C 278.373,242.863 280.039,244.53 281.5,246.5C 285.745,258.726 285.412,270.893 280.5,283C 280.164,284.03 279.497,284.53 278.5,284.5C 285.49,269.793 284.823,255.46 276.5,241.5 Z"/></g>
<g><path style="opacity:0.984" fill="#9adfa4" d="M 43.5,265.5 C 44.1174,265.611 44.6174,265.944 45,266.5C 45.4966,268.81 45.6633,271.143 45.5,273.5C 44.469,271.039 43.8023,268.373 43.5,265.5 Z"/></g>
<g><path style="opacity:1" fill="#50d163" d="M 233.5,280.5 C 228.025,281.489 222.358,281.822 216.5,281.5C 215.653,280.034 214.32,279.2 212.5,279C 209.522,278.304 206.522,277.804 203.5,277.5C 198.998,275.992 194.998,273.659 191.5,270.5C 191.44,269.957 191.107,269.624 190.5,269.5C 189.502,278.475 189.168,287.475 189.5,296.5C 188.752,287.657 188.085,278.657 187.5,269.5C 187.57,268.228 187.903,267.062 188.5,266C 190.833,265.333 193.167,265.333 195.5,266C 196.951,268.66 198.618,271.327 200.5,274C 205.546,274.125 210.546,273.625 215.5,272.5C 216.672,272.919 217.672,273.585 218.5,274.5C 216.922,275.298 215.256,275.798 213.5,276C 219.483,279.975 226.15,281.475 233.5,280.5 Z"/></g>
<g><path style="opacity:1" fill="#7ad585" d="M 203.5,277.5 C 206.522,277.804 209.522,278.304 212.5,279C 214.32,279.2 215.653,280.034 216.5,281.5C 211.67,281.412 207.337,280.078 203.5,277.5 Z"/></g>
<g><path style="opacity:1" fill="#7cd784" d="M 250.5,276.5 C 249.657,278.173 248.324,279.34 246.5,280C 236.523,283.912 226.523,284.412 216.5,281.5C 222.358,281.822 228.025,281.489 233.5,280.5C 240.359,279.504 246.026,278.171 250.5,276.5 Z"/></g>
<g><path style="opacity:0.933" fill="#8fdc99" d="M 399.5,276.5 C 394.578,279.064 389.245,280.397 383.5,280.5C 388.481,278.255 393.814,276.921 399.5,276.5 Z"/></g>
<g><path style="opacity:1" fill="#63d46f" d="M 306.5,268.5 C 310.134,273.81 313.801,279.144 317.5,284.5C 315.609,283.464 313.776,283.464 312,284.5C 311.184,282.375 310.017,280.541 308.5,279C 308.905,278.055 309.572,277.388 310.5,277C 309.207,276.51 307.873,276.343 306.5,276.5C 306.5,273.833 306.5,271.167 306.5,268.5 Z"/></g>
<g><path style="opacity:0.477" fill="#a2ebae" d="M 350.5,275.5 C 354.25,275.402 357.583,276.569 360.5,279C 367.786,280.186 375.119,280.686 382.5,280.5C 374.967,281.723 367.3,281.557 359.5,280C 356.16,278.997 353.16,277.497 350.5,275.5 Z"/></g>
<g><path style="opacity:1" fill="#9ce3a2" d="M 46.5,279.5 C 49.9521,286.701 52.2854,294.367 53.5,302.5C 50.1918,295.234 47.8585,287.567 46.5,279.5 Z"/></g>
<g><path style="opacity:1" fill="#7ed78a" d="M 317.5,284.5 C 320.526,287.195 323.526,289.862 326.5,292.5C 323.513,291.844 320.846,290.511 318.5,288.5C 317.571,287.311 317.238,285.978 317.5,284.5 Z"/></g>
<g><path style="opacity:0.576" fill="#9de1a6" d="M 409.5,297.5 C 408.833,297.5 408.167,297.5 407.5,297.5C 408.799,289.558 408.799,281.558 407.5,273.5C 404.965,274.9 402.298,275.9 399.5,276.5C 401.813,273.083 405.146,271.749 409.5,272.5C 409.5,280.833 409.5,289.167 409.5,297.5 Z"/></g>
<g><path style="opacity:1" fill="#4fd061" d="M 43.5,255.5 C 45.6708,261.446 47.0041,267.779 47.5,274.5C 49.5801,278.741 51.4134,283.074 53,287.5C 53.8333,289 55,290.167 56.5,291C 55.5205,293.725 54.8538,296.558 54.5,299.5C 55.2671,303.235 56.4338,303.235 58,299.5C 58.3333,300.167 58.6667,300.833 59,301.5C 59.0621,305.148 58.8954,308.815 58.5,312.5C 57.6873,310.739 56.6873,309.072 55.5,307.5C 55.7709,305.62 55.1042,304.287 53.5,303.5C 53.5,303.167 53.5,302.833 53.5,302.5C 52.2854,294.367 49.9521,286.701 46.5,279.5C 45.8505,277.565 45.5172,275.565 45.5,273.5C 45.6633,271.143 45.4966,268.81 45,266.5C 44.6174,265.944 44.1174,265.611 43.5,265.5C 43.5,264.833 43.5,264.167 43.5,263.5C 43.5,260.833 43.5,258.167 43.5,255.5 Z"/></g>
<g><path style="opacity:1" fill="#6dd179" d="M 278.5,284.5 C 278.723,289.6 276.389,292.6 271.5,293.5C 271.5,294.5 271.5,295.5 271.5,296.5C 269.097,296.448 266.764,296.781 264.5,297.5C 269.794,293.873 274.461,289.54 278.5,284.5 Z"/></g>
<g><path style="opacity:1" fill="#86db8f" d="M 326.5,292.5 C 330.535,294.848 334.535,297.182 338.5,299.5C 336.599,299.567 334.766,299.233 333,298.5C 330.624,296.591 328.458,294.591 326.5,292.5 Z"/></g>
<g><path style="opacity:1" fill="#9ee4a6" d="M 191.5,270.5 C 190.343,278.99 190.176,287.657 191,296.5C 194.457,298.474 197.957,300.14 201.5,301.5C 196.688,301.353 192.688,299.686 189.5,296.5C 189.168,287.475 189.502,278.475 190.5,269.5C 191.107,269.624 191.44,269.957 191.5,270.5 Z"/></g>
<g><path style="opacity:1" fill="#89d994" d="M 338.5,299.5 C 340.786,299.595 342.786,300.262 344.5,301.5C 341.99,301.946 339.99,301.28 338.5,299.5 Z"/></g>
<g><path style="opacity:0.467" fill="#b7eebe" d="M 344.5,301.5 C 347.428,301.565 350.095,302.232 352.5,303.5C 349.505,303.706 346.838,303.04 344.5,301.5 Z"/></g>
<g><path style="opacity:1" fill="#67d176" d="M 407.5,297.5 C 408.167,297.5 408.833,297.5 409.5,297.5C 404.957,302.121 399.291,304.121 392.5,303.5C 392.5,303.167 392.5,302.833 392.5,302.5C 397.558,301.036 402.558,299.37 407.5,297.5 Z"/></g>
<g><path style="opacity:0.976" fill="#9ae2a3" d="M 202.5,301.5 C 207.289,302.509 211.956,303.509 216.5,304.5C 215.167,304.5 213.833,304.5 212.5,304.5C 208.655,304.712 205.321,303.712 202.5,301.5 Z"/></g>
<g><path style="opacity:0.543" fill="#9ae1a2" d="M 392.5,302.5 C 392.5,302.833 392.5,303.167 392.5,303.5C 380.917,305.433 369.25,305.933 357.5,305C 355.942,304.79 354.609,304.29 353.5,303.5C 366.549,304.991 379.549,304.657 392.5,302.5 Z"/></g>
<g><path style="opacity:0.518" fill="#adedb4" d="M 53.5,303.5 C 55.1042,304.287 55.7709,305.62 55.5,307.5C 54.3263,306.486 53.6596,305.153 53.5,303.5 Z"/></g>
<g><path style="opacity:1" fill="#6cd17a" d="M 259.5,299.5 C 258.076,301.155 256.243,302.488 254,303.5C 240.749,306.428 227.249,307.262 213.5,306C 212.944,305.617 212.611,305.117 212.5,304.5C 213.833,304.5 215.167,304.5 216.5,304.5C 231.207,305.627 245.54,303.96 259.5,299.5 Z"/></g>
<g><path style="opacity:1" fill="#8cdc97" d="M 55.5,307.5 C 56.6873,309.072 57.6873,310.739 58.5,312.5C 59.7077,315.326 61.2077,317.992 63,320.5C 63.4955,322.473 63.6621,324.473 63.5,326.5C 60.0571,320.6 57.3904,314.267 55.5,307.5 Z"/></g>
<g><path style="opacity:1" fill="#8edc98" d="M 486.5,290.5 C 483.916,300.981 480.25,310.981 475.5,320.5C 475.338,318.473 475.505,316.473 476,314.5C 478.046,312.3 479.046,309.633 479,306.5C 481.705,301.136 484.205,295.803 486.5,290.5 Z"/></g>
<g><path style="opacity:0.49" fill="#bdecc3" d="M 475.5,321.5 C 475.068,322.71 474.401,323.71 473.5,324.5C 473.285,322.821 473.952,321.821 475.5,321.5 Z"/></g>
<g><path style="opacity:0.541" fill="#ace4b2" d="M 473.5,324.5 C 473.34,326.153 472.674,327.486 471.5,328.5C 471.229,326.62 471.896,325.287 473.5,324.5 Z"/></g>
<g><path style="opacity:0.925" fill="#a3dfab" d="M 471.5,328.5 C 471.34,330.153 470.674,331.486 469.5,332.5C 469.157,330.517 469.824,329.183 471.5,328.5 Z"/></g>
<g><path style="opacity:0.871" fill="#8eda97" d="M 63.5,327.5 C 64.675,327.281 65.675,327.614 66.5,328.5C 67.7054,331.45 68.7054,334.45 69.5,337.5C 67.0116,334.534 65.0116,331.201 63.5,327.5 Z"/></g>
<g><path style="opacity:0.965" fill="#8dd996" d="M 469.5,332.5 C 467.75,336.335 465.75,340.001 463.5,343.5C 463.66,338.847 465.66,335.181 469.5,332.5 Z"/></g>
<g><path style="opacity:1" fill="#89d892" d="M 69.5,338.5 C 73.1858,340.161 75.1858,343.161 75.5,347.5C 72.7693,345.054 70.7693,342.054 69.5,338.5 Z"/></g>
<g><path style="opacity:0.918" fill="#83db8c" d="M 463.5,343.5 C 461.327,347.852 458.66,351.852 455.5,355.5C 455.274,349.439 457.941,345.439 463.5,343.5 Z"/></g>
<g><path style="opacity:1" fill="#74d47e" d="M 75.5,347.5 C 76.5,347.5 77.5,347.5 78.5,347.5C 78.5652,349.696 79.2319,351.696 80.5,353.5C 82.8375,351.989 83.5042,352.323 82.5,354.5C 84.1713,356.51 84.838,358.843 84.5,361.5C 80.7191,357.376 77.7191,352.709 75.5,347.5 Z"/></g>
<g><path style="opacity:0.027" fill="#bef2c3" d="M 452.5,358.5 C 452.833,358.5 453.167,358.5 453.5,358.5C 453.573,360.027 452.906,361.027 451.5,361.5C 451.557,360.391 451.89,359.391 452.5,358.5 Z"/></g>
<g><path style="opacity:1" fill="#5fd46d" d="M 452.5,358.5 C 451.89,359.391 451.557,360.391 451.5,361.5C 450.299,363.909 448.633,365.909 446.5,367.5C 444.738,368.262 443.738,369.596 443.5,371.5C 441.883,374.784 439.55,377.451 436.5,379.5C 436.5,377.5 436.5,375.5 436.5,373.5C 437.833,373.5 439.167,373.5 440.5,373.5C 440.67,372.178 440.337,371.011 439.5,370C 440.715,367.904 441.549,368.071 442,370.5C 442.624,368.536 442.124,366.869 440.5,365.5C 440.833,365.167 441.167,364.833 441.5,364.5C 442.842,366.005 444.508,366.672 446.5,366.5C 447.333,364.248 447.333,362.081 446.5,360C 447.448,359.517 448.448,359.351 449.5,359.5C 449.351,358.448 449.517,357.448 450,356.5C 450.417,357.756 451.25,358.423 452.5,358.5 Z"/></g>
<g><path style="opacity:0.027" fill="#b7efbf" d="M 446.5,367.5 C 446.262,369.404 445.262,370.738 443.5,371.5C 443.738,369.596 444.738,368.262 446.5,367.5 Z"/></g>
<g><path style="opacity:1" fill="#76d383" d="M 84.5,361.5 C 86.6075,361.722 88.2742,362.722 89.5,364.5C 92.0402,367.592 94.0402,370.926 95.5,374.5C 98.4701,374.746 99.8034,376.412 99.5,379.5C 93.7763,374.109 88.7763,368.109 84.5,361.5 Z"/></g>
<g><path style="opacity:1" fill="#90dc9c" d="M 99.5,379.5 C 101.997,380.129 103.33,381.796 103.5,384.5C 101.937,383.055 100.604,381.389 99.5,379.5 Z"/></g>
<g><path style="opacity:0.714" fill="#bbebbd" d="M 103.5,384.5 C 104.167,384.5 104.833,384.5 105.5,384.5C 106.6,385.605 107.267,386.938 107.5,388.5C 105.833,387.5 104.5,386.167 103.5,384.5 Z"/></g>
<g><path style="opacity:1" fill="#88dc8e" d="M 436.5,379.5 C 430.827,387.173 424.161,393.839 416.5,399.5C 417.449,397.263 418.116,394.929 418.5,392.5C 419.833,392.5 421.167,392.5 422.5,392.5C 422.845,388.266 424.845,386.266 428.5,386.5C 428.291,385.914 427.957,385.414 427.5,385C 430.901,385.266 432.567,383.766 432.5,380.5C 433.959,380.567 435.292,380.234 436.5,379.5 Z"/></g>
<g><path style="opacity:1" fill="#7ad686" d="M 105.5,384.5 C 107.017,384.511 108.184,385.177 109,386.5C 109.471,389.594 111.304,391.261 114.5,391.5C 116.81,395.141 119.477,398.474 122.5,401.5C 119.573,400.243 117.239,398.243 115.5,395.5C 114.738,393.738 113.404,392.738 111.5,392.5C 109.861,391.527 108.527,390.194 107.5,388.5C 107.267,386.938 106.6,385.605 105.5,384.5 Z"/></g>
<g><path style="opacity:0.584" fill="#bcedc9" d="M 111.5,392.5 C 113.404,392.738 114.738,393.738 115.5,395.5C 113.596,395.262 112.262,394.262 111.5,392.5 Z"/></g>
<g><path style="opacity:0.992" fill="#83d78e" d="M 416.5,399.5 C 415.055,401.063 413.389,402.396 411.5,403.5C 411.5,402.167 411.5,400.833 411.5,399.5C 413.167,399.5 414.833,399.5 416.5,399.5 Z"/></g>
<g><path style="opacity:0.961" fill="#a4e3ab" d="M 122.5,401.5 C 125.089,402.419 127.089,404.086 128.5,406.5C 125.911,405.581 123.911,403.914 122.5,401.5 Z"/></g>
<g><path style="opacity:0.125" fill="#b8efc2" d="M 411.5,403.5 C 409.704,405.9 407.37,407.567 404.5,408.5C 406.296,406.1 408.63,404.433 411.5,403.5 Z"/></g>
<g><path style="opacity:1" fill="#83da91" d="M 404.5,408.5 C 402.2,410.984 399.533,412.984 396.5,414.5C 397.59,410.602 400.256,408.602 404.5,408.5 Z"/></g>
<g><path style="opacity:1" fill="#8cdb95" d="M 135.5,411.5 C 136.873,411.343 138.207,411.51 139.5,412C 141.451,414.248 143.451,416.415 145.5,418.5C 141.608,416.938 138.275,414.605 135.5,411.5 Z"/></g>
<g><path style="opacity:1" fill="#7ed885" d="M 396.5,414.5 C 390.28,420.046 383.28,424.379 375.5,427.5C 376.72,425.718 377.386,423.718 377.5,421.5C 379.857,421.663 382.19,421.497 384.5,421C 387.003,418.916 389.669,417.083 392.5,415.5C 393.736,414.754 395.07,414.421 396.5,414.5 Z"/></g>
<g><path style="opacity:1" fill="#89d993" d="M 145.5,418.5 C 148.812,420.449 152.479,421.949 156.5,423C 159.362,425.168 162.029,427.335 164.5,429.5C 157.635,426.574 151.302,422.907 145.5,418.5 Z"/></g>
<g><path style="opacity:1" fill="#79d784" d="M 375.5,427.5 C 368.047,432.225 360.047,435.891 351.5,438.5C 351.369,437.624 351.702,436.957 352.5,436.5C 355.887,435.385 358.887,433.718 361.5,431.5C 366.022,429.567 370.689,428.234 375.5,427.5 Z"/></g>
<g><path style="opacity:1" fill="#81d990" d="M 164.5,429.5 C 166.547,429.511 168.547,429.844 170.5,430.5C 177.065,433.427 183.565,436.427 190,439.5C 191.03,439.836 191.53,440.503 191.5,441.5C 182.078,438.286 173.078,434.286 164.5,429.5 Z"/></g>
<g><path style="opacity:1" fill="#70d47a" d="M 351.5,438.5 C 349.11,440.02 346.443,441.02 343.5,441.5C 341.219,441.077 339.552,441.744 338.5,443.5C 338.167,443.5 337.833,443.5 337.5,443.5C 334.918,443.025 332.918,443.692 331.5,445.5C 326.064,447.324 320.397,448.658 314.5,449.5C 311.171,449.215 308.171,449.882 305.5,451.5C 299.572,452.657 293.572,453.324 287.5,453.5C 287.5,453.167 287.5,452.833 287.5,452.5C 299.652,450.14 311.985,447.973 324.5,446C 327.979,443.211 331.979,441.878 336.5,442C 335.289,441.107 335.289,440.274 336.5,439.5C 337.939,440.063 339.439,440.397 341,440.5C 344.395,439.195 347.895,438.529 351.5,438.5 Z"/></g>
<g><path style="opacity:0.91" fill="#a6e1ab" d="M 343.5,441.5 C 342.07,442.537 340.403,443.204 338.5,443.5C 339.552,441.744 341.219,441.077 343.5,441.5 Z"/></g>
<g><path style="opacity:1" fill="#95dda1" d="M 337.5,443.5 C 335.786,444.738 333.786,445.405 331.5,445.5C 332.918,443.692 334.918,443.025 337.5,443.5 Z"/></g>
<g><path style="opacity:1" fill="#7dd687" d="M 192.5,441.5 C 198.594,442.472 204.594,443.638 210.5,445C 211.756,445.417 212.423,446.25 212.5,447.5C 205.446,446.479 198.779,444.479 192.5,441.5 Z"/></g>
<g><path style="opacity:1" fill="#7dd688" d="M 213.5,447.5 C 220.655,447.665 227.655,448.665 234.5,450.5C 239.486,451.581 244.486,452.581 249.5,453.5C 237.089,453.209 225.089,451.209 213.5,447.5 Z"/></g>
<g><path style="opacity:0.043" fill="#b5f1b9" d="M 314.5,449.5 C 311.727,450.657 308.727,451.324 305.5,451.5C 308.171,449.882 311.171,449.215 314.5,449.5 Z"/></g>
<g><path style="opacity:1" fill="#71d27b" d="M 234.5,450.5 C 252.119,452.156 269.786,452.823 287.5,452.5C 287.5,452.833 287.5,453.167 287.5,453.5C 274.803,454.816 262.137,454.816 249.5,453.5C 244.486,452.581 239.486,451.581 234.5,450.5 Z"/></g>
</svg>
